<svg xmlns="http://www.w3.org/2000/svg" viewBox="0 0 37.27155 49.28937"><g id="be46abd5-0c32-42b3-98ce-ecbce3bca6b7" data-name="Camada 2"><g id="f2d1bc98-7d69-42dd-938c-63bb78a19962" data-name="Camada 1"><path d="M37.26868,4.93188c0-.14422.00348-.28869-.00379-.43273a4.92241,4.92241,0,0,0-1.06225-2.88361A3.98972,3.98972,0,0,0,33.17218,0H4.09961A4.00372,4.00372,0,0,0,.97742,1.72461,5.0829,5.0829,0,0,0,0,4.83435Q.00879,16.20914.00305,27.58411q0,8.84976-.00232,17.69958a4.43179,4.43179,0,0,0,.33478,1.87964,3.38531,3.38531,0,0,0,2.80145,2.126h.8664c.1474-.10022.31311-.02716.46875-.04968a2.63631,2.63631,0,0,0,1.9809-.93787q5.22729-5.2207,10.44738-10.44849a2.31341,2.31341,0,0,1,3.47382.00073Q25.50574,43.00034,30.645,48.13885a3.46419,3.46419,0,0,0,2.14215,1.15052h1.25147a3.1972,3.1972,0,0,0,2.01605-.88123,4.10642,4.10642,0,0,0,1.21692-3.17529Q37.265,25.08236,37.26868,4.93188Zm-4.23584.78766q.00027,18.794-.00006,37.588a3.63016,3.63016,0,0,1-.005.40289.67785.67785,0,0,1-1.0603.51916,2.42791,2.42791,0,0,1-.39789-.35858q-4.73739-4.73446-9.47333-9.47027a4.82459,4.82459,0,0,0-7.12463-.00379q-4.73739,4.73465-9.47626,9.46765a2.19582,2.19582,0,0,1-.43872.37665A.66047.66047,0,0,1,4.03235,43.679c-.00964-.13373-.0025-.26868-.0025-.40308q-.00009-9.3858-.00006-18.77161,0-9.38571.00006-18.77154c.00006-1.34857.549-1.89386,1.9057-1.89386q12.6113-.00009,25.22253,0C32.47443,3.83893,33.03284,4.3988,33.03284,5.71954Z"/></g></g></svg>