<svg xmlns="http://www.w3.org/2000/svg" viewBox="0 0 47.26204 48.97936"><g id="f38164e6-5704-4852-aaf5-0ddac13f146e" data-name="Camada 2"><g id="b2083267-f481-4eed-a2e4-a6bbd4114821" data-name="Camada 1"><path d="M39.88918,41.71926a.83844.83844,0,0,1,.21161-1.18653c5.95361-6.01568,8.26178-13.246,6.67358-21.53216A23.61841,23.61841,0,1,0,23.63985,47.27779a24.3659,24.3659,0,0,0,5.89478-.775,2.05658,2.05658,0,0,1,1.03485-.01111q5.19222,1.21234,10.388,2.40967a1.34482,1.34482,0,0,0,1.56378-.41529,1.36919,1.36919,0,0,0-.00824-1.56842C41.63436,45.18679,40.79714,43.43441,39.88918,41.71926ZM4.466,29.55361A20.01142,20.01142,0,0,1,16.00521,5.02767,19.79571,19.79571,0,0,1,42.87,19.33822c1.57642,7.323-.60132,13.6668-6.0274,18.86193-.14087.13483-.29108.25971-.43506.3913a1.20974,1.20974,0,0,0-.34467,1.75427c.65516,1.32459,1.319,2.645,1.97834,3.96753a1.83849,1.83849,0,0,1,.05908.17816c-2.77832-.63623-5.48963-1.25018-8.196-1.88507a1.96666,1.96666,0,0,0-1.03082.03449A19.98463,19.98463,0,0,1,4.466,29.55361Z"/></g></g></svg>