<svg xmlns="http://www.w3.org/2000/svg" viewBox="0 0 51.99219 46.02051"><g id="b664ab94-136d-4978-95f5-a366a7279946" data-name="Camada 2"><g id="fcdc80c4-70af-4419-b58c-cc902e980b43" data-name="Icons"><path id="ee762ce9-4695-4cb0-9653-e00723a277a9" data-name="Notifications" d="M48.16016,4.57422A13.28092,13.28092,0,0,0,26.96582,6.08838c-.33887.478-.66309.98584-.96973,1.51465-.30664-.52881-.63086-1.03662-.96972-1.51465A13.28092,13.28092,0,0,0,3.832,4.57422,15.913,15.913,0,0,0,0,15.13867c0,4.35694,1.69238,8.39942,5.32617,12.72168,3.21387,3.82227,7.81836,7.7461,13.18848,12.32227,1.97168,1.68017,4.01074,3.41748,6.24512,5.37353a1.87847,1.87847,0,0,0,1.23632.46436,1.94153,1.94153,0,0,0,1.30176-.522c2.16895-1.89844,4.208-3.63575,6.21777-5.34815,5.332-4.54394,9.93653-8.46777,13.14942-12.29,3.63476-4.32178,5.32715-8.36426,5.32715-12.72168A15.913,15.913,0,0,0,48.16016,4.57422ZM30.95508,37.40186c-1.59668,1.36035-3.23731,2.75878-4.959,4.2539-1.74121-1.51172-3.39941-2.9248-5.01269-4.29931l-.24317.28515.17188-.34668C10.57812,28.48975,3.752,22.67236,3.752,15.13867a12.15873,12.15873,0,0,1,2.89551-8.083,9.65043,9.65043,0,0,1,7.33887-3.30273,9.75965,9.75965,0,0,1,7.97851,4.50488,17.37843,17.37843,0,0,1,2.24707,4.46924,1.87661,1.87661,0,0,0,3.56836,0,17.37877,17.37877,0,0,1,2.24707-4.46924,9.75969,9.75969,0,0,1,7.97852-4.50488,9.65044,9.65044,0,0,1,7.33887,3.30273,12.15878,12.15878,0,0,1,2.8955,8.083c0,7.53369-6.82714,13.35156-17.16113,22.15772Zm.36432.18225-.00006-.00013.00006.00013Z"/></g></g></svg>