<svg xmlns="http://www.w3.org/2000/svg" viewBox="0 0 45.74423 45.69202"><g id="f41bbeb0-3eca-48de-bc0d-3aa7ae84a8d3" data-name="Camada 2"><g id="ba315061-fadc-4bb2-a9c4-777ea7cb93b2" data-name="Icons"><path d="M16.72794,43.7486a23.43683,23.43683,0,0,0,6.97906.751c6.75-.29688,12.5022-2.77,16.93982-7.96491a21.22606,21.22606,0,0,0,4.93939-11.53668c.02973-.249-.03375-.52942.158-.74841v-.35736c-.113-.02063-.0863-.10108-.075-.17493l-.00012-.17743c-.01465-.07745-.00971-.14691.07513-.18371v-.35737a.40287.40287,0,0,1,0-.53607v-.44665a.40376.40376,0,0,1,0-.53607v-.35737c-.09112-.03521-.09143-.10632-.07312-.18481.00366-.09308-.07727-.20978.07312-.2619V20.4079a5.638,5.638,0,0,1-.23687-1.45935A21.634,21.634,0,0,0,28.89444.78693,23.43945,23.43945,0,0,0,8.94,4.45465,20.72516,20.72516,0,0,0,.26035,18.91376,21.91916,21.91916,0,0,0,4.75882,36.14252a18.272,18.272,0,0,0,2.16345,2.31293.82372.82372,0,0,1,.29535.65436c.01795,1.04181.05536,2.08337.09052,3.12487A3.44469,3.44469,0,0,0,9.731,45.6131a.39826.39826,0,0,1,.09625.07892h1.87628c1.47528-.65039,2.95294-1.29559,4.42334-1.95691A.83439.83439,0,0,1,16.72794,43.7486Zm-1.96387-3.313c-1.27112.56861-2.54639,1.12775-3.98041,1.7619,0-1.14563-.01153-2.171.00293-3.196A4.02109,4.02109,0,0,0,9.318,35.79273a16.25192,16.25192,0,0,1-3.42877-4.368A18.75777,18.75777,0,0,1,3.65158,20.62818,17.87525,17.87525,0,0,1,7.505,10.72724a18.22487,18.22487,0,0,1,11.152-6.6861A20.0099,20.0099,0,0,1,34.29367,7.05371,17.45391,17.45391,0,0,1,41.8992,19.11414a18.38,18.38,0,0,1-2.57806,13.175,18.10443,18.10443,0,0,1-11.35529,8.03772,21.10055,21.10055,0,0,1-10.63879-.10773A3.7303,3.7303,0,0,0,14.76407,40.43561Z"/><path d="M45.74423,22.01612V21.48A.683.683,0,0,0,45.74423,22.01612Z"/><path d="M45.74423,22.99884v-.53607A.683.683,0,0,0,45.74423,22.99884Z"/><path d="M45.69815,20.92591l.00025.01422a.29513.29513,0,0,1,.04583.00384v-.268C45.67172,20.74872,45.70743,20.84143,45.69815,20.92591Z"/><path d="M45.74423,21.12268V20.944c-.01648.024-.03131.02893-.04529.02344A.18378.18378,0,0,0,45.74423,21.12268Z"/><path d="M45.6984,20.94013c-.0091-.00043-.01807-.00263-.02729-.00226a.04823.04823,0,0,0,.02783.02954C45.69907,20.95826,45.69858,20.94916,45.6984,20.94013Z"/><path d="M45.69815,23.70154l.00037.01435.04571-.00226v-.35742c-.05865.05334-.04266.12469-.04608.19134Q45.69824,23.62455,45.69815,23.70154Z"/><path d="M45.74423,23.89228v-.17865c-.01428.02325-.02954.0282-.04522.0238A.1835.1835,0,0,0,45.74423,23.89228Z"/><path d="M45.69852,23.71589l-.0293.00146a.04744.04744,0,0,0,.02979.02008C45.69907,23.73023,45.69864,23.723,45.69852,23.71589Z"/><path d="M20.06,24.60309q2.27343,1.76469,4.54431,3.53284a3.18622,3.18622,0,0,0,4.82483-.82361q1.73308-2.72736,3.45-5.465c.87976-1.39478,1.76416-2.78669,2.63623-4.18628a1.00561,1.00561,0,0,0-.55286-1.59809,1.13432,1.13432,0,0,0-1.02191.31238q-3.1624,2.40151-6.32922,4.79718A1.32376,1.32376,0,0,1,25.717,21.1554q-2.27334-1.72788-4.54913-3.45264a3.18609,3.18609,0,0,0-4.9054.88764q-1.17984,1.86418-2.35254,3.73285c-1.22888,1.94757-2.46325,3.89178-3.68609,5.8432a1.00516,1.00516,0,0,0,.60846,1.604,1.21641,1.21641,0,0,0,1.01312-.359q3.12552-2.4137,6.2547-4.82287A1.33125,1.33125,0,0,1,20.06,24.60309Z"/></g></g></svg>