<svg xmlns="http://www.w3.org/2000/svg" viewBox="0 0 45.85091 45.85091"><g id="a6e86101-cac6-46c5-85ca-e2d36f225446" data-name="Camada 2"><g id="ef4b12bf-bfd6-4dde-b6b1-e5668bb5abb7" data-name="Icons"><g id="ba61f6a2-58b1-4e4d-a3f8-4969fd9ae187" data-name="Upload"><path d="M32.15475,0H13.69616A13.71188,13.71188,0,0,0,0,13.69616V32.15475A13.71187,13.71187,0,0,0,13.69616,45.85091H32.15475A13.71186,13.71186,0,0,0,45.85091,32.15475V13.69616A13.71187,13.71187,0,0,0,32.15475,0Zm10.067,13.69616V32.15475a10.07811,10.07811,0,0,1-10.067,10.067H13.69616a10.07811,10.07811,0,0,1-10.067-10.067V13.69616a10.07811,10.07811,0,0,1,10.067-10.067H32.15475A10.07811,10.07811,0,0,1,42.22176,13.69616Z"/><path d="M34.04417,21.145h-9.4903V11.79187a1.78052,1.78052,0,1,0-3.561,0V21.145h-9.19a1.78075,1.78075,0,1,0,0,3.5615h9.19v9.32669a1.78051,1.78051,0,1,0,3.561,0V24.70645h9.4903a1.78076,1.78076,0,1,0,0-3.5615Z"/></g></g></g></svg>