<svg id="be49102a-c608-439a-b8d9-ae55e72e6469" data-name="Camada 1" xmlns="http://www.w3.org/2000/svg" viewBox="0 0 489.93885 486.45124"><defs><style>.b44a6b16-58fd-4b33-bf1a-1ae6b10823ff{fill:#2ba698;}.a08a1f93-2d4d-41f4-b58b-1df2bfff7d51{fill:#fff;}</style></defs><path class="b44a6b16-58fd-4b33-bf1a-1ae6b10823ff" d="M93.633,37.87311c17.09945-8.95324,34.84775-16.14818,53.76659-20.33593a458.66674,458.66674,0,0,1,61.44242-8.84c17.05114-1.41169,34.12828-2.345,51.22281-1.73048,38.17681,1.37235,76.16473,4.38478,112.78475,16.40694,20.84717,6.844,39.973,16.93739,56.61291,31.43773.86962.75779,1.87692,1.35763,2.82009,2.031,9.05729,6.678,15.673,15.60289,22.43436,24.39158,9.091,11.817,15.26572,25.196,20.82384,38.91141,6.36323,17.195,9.9633,35.06354,13.03329,53.069,2.06431,14.75717,4.397,29.52951,4.87618,44.39673.522,16.19371,2.76617,32.37467.57916,48.65747-1.01,7.51976-.36436,15.19873-1.08107,22.82624a501.248,501.248,0,0,1-6.94159,50.128c-4.6045,24.52242-12.81133,47.68609-26.15861,68.896-14.83978,23.0657-33.96109,41.63271-57.9583,55.08227-17.89,10.31926-37.19563,16.80332-57.33005,20.85632-18.2174,3.66713-36.64894,5.70456-55.18144,7.26159a443.79225,443.79225,0,0,1-56.20593,1.594c-28.505-1.22367-56.86077-4.10348-84.82982-10.15609a183.47963,183.47963,0,0,1-26.24-7.66317c-13.87746-5.96055-27.49654-12.39434-39.85678-21.25074a153.12493,153.12493,0,0,1-32.95812-31.43673,180.15823,180.15823,0,0,1-30.32847-62.27737c-4.41045-13.441-6.4916-27.3806-8.65406-41.26843a435.1951,435.1951,0,0,1-5.06741-80.677,446.053,446.053,0,0,1,4.66039-52.84052c.24913-1.6461.17735-3.31383.4828-4.94191,1.87415-11.435,3.85217-22.8614,6.3924-34.1744,5.09678-22.69877,13.69485-43.94385,26.69543-63.31682A153.09827,153.09827,0,0,1,87.10475,41.43923C89.21688,40.10577,91.43909,39.02811,93.633,37.87311Z" transform="translate(-5.03057 -6.77438)"/><path class="a08a1f93-2d4d-41f4-b58b-1df2bfff7d51" d="M361.5709,186.09493C350.57305,133.14156,304.202,95.17076,249.13119,95.17139a80.29274,80.29274,0,0,0-21.36812,2.14033c-41.8434,9.60612-70.54067,34.53487-85.09715,74.9617-6.44813,17.908-8.32524,36.47688-3.43809,55.29761,5.63364,21.6954,15.4659,41.582,26.3411,60.98941,22.00233,39.26424,47.99786,75.83278,75.63351,111.27354,5.42107,6.95217,12.64109,6.7043,18.2549-.45129q24.9324-31.78,47.338-65.39014c17.81333-26.871,34.47223-54.38477,46.945-84.25021C362.30961,229.22373,366.181,208.292,361.5709,186.09493Zm-111.381,53.50591c-22.696-.0639-41.40079-18.8058-41.29539-41.37733a41.53927,41.53927,0,0,1,41.52085-41.14934c22.53435.07683,41.17,19.04156,40.97558,41.69929C291.19958,221.076,272.44206,239.66342,250.18987,239.60084Z" transform="translate(-5.03057 -6.77438)"/></svg>