<svg id="a42afa77-59d1-4ce4-8c3f-28ddd91a11b0" data-name="Camada 1" xmlns="http://www.w3.org/2000/svg" viewBox="0 0 392.32537 392.32537"><defs><style>.a52b098d-9a69-4b0a-87d4-ebd9f3488cf1{fill:#8b8b8b;}.b441f2cd-8d27-4adf-91ba-32f50874bb0b{fill:#fff;}</style></defs><rect class="a52b098d-9a69-4b0a-87d4-ebd9f3488cf1" width="392.32537" height="392.32537" rx="196.16249"/><path class="b441f2cd-8d27-4adf-91ba-32f50874bb0b" d="M258.1048,96.96184c4.56132,1.45054,9.3707,1.653,13.98392,3.00263,23.056,6.74509,40.45442,20.59151,51.37518,41.886,12.83316,25.02356,12.97259,50.61389.04119,75.60355-12.6712,24.48684-33.03838,39.13728-60.32594,43.92169-33.77365,5.92165-68.62565-10.94118-85.56382-41.657-9.0707-16.44885-12.55928-34.08361-9.251-52.70788,5.85493-32.961,25.1125-54.6915,56.31631-66.09121a66.88464,66.88464,0,0,1,14.78459-3.301c.49175-.06083,1.06008.03385,1.205-.65681Z" transform="translate(-53.83732 -60.21541)"/><path class="b441f2cd-8d27-4adf-91ba-32f50874bb0b" d="M247.47341,415.79434a160.76045,160.76045,0,0,1-95.74189-32.32859,164.33707,164.33707,0,0,1-42.92516-47.0168,8.48165,8.48165,0,0,1-.56567-8.55611c14.32586-29.86092,37.40736-49.13977,69.54473-57.39741a89.45516,89.45516,0,0,1,10.96823-2.03338c4.78787-.60844,8.45781,2.07868,12.15589,4.59508a85.51368,85.51368,0,0,0,50.90528,14.98838c17.34427-.34276,33.42793-5.21766,47.68325-15.29338,5.25727-3.71587,10.5658-4.67694,16.93346-3.46405,31.78409,6.05421,55.17364,23.71,71.70345,51.05383a79.73217,79.73217,0,0,1,3.88157,8.0825,6.479,6.479,0,0,1-.50192,6.48178C372.7287,365.546,347.182,388.5099,314.06975,402.726A156.29225,156.29225,0,0,1,268.73631,414.612,209.752,209.752,0,0,1,247.47341,415.79434Z" transform="translate(-53.83732 -60.21541)"/></svg>