<svg id="ac539cec-3b18-4d9d-9d50-d4928cad7554" data-name="Camada 1" xmlns="http://www.w3.org/2000/svg" viewBox="0 0 489.93885 486.45124"><defs><style>.e1352aa8-fb32-41dd-8454-baca81d696a9{fill:#9dc42b;}.b711dfcd-e4ff-4bb8-b41e-97f2cacd9468{fill:#fff;}</style></defs><path class="e1352aa8-fb32-41dd-8454-baca81d696a9" d="M93.633,37.87311c17.09945-8.95324,34.84775-16.14818,53.76659-20.33593a458.66674,458.66674,0,0,1,61.44242-8.84c17.05114-1.41169,34.12828-2.345,51.22281-1.73048,38.17681,1.37235,76.16473,4.38478,112.78475,16.40694,20.84717,6.844,39.973,16.93739,56.61291,31.43773.86962.75779,1.87692,1.35763,2.82009,2.031,9.05729,6.678,15.673,15.60289,22.43436,24.39158,9.091,11.817,15.26572,25.196,20.82384,38.91141,6.36323,17.195,9.9633,35.06354,13.03329,53.069,2.06431,14.75717,4.397,29.52951,4.87618,44.39673.522,16.19371,2.76617,32.37467.57916,48.65747-1.01,7.51976-.36436,15.19873-1.08107,22.82624a501.248,501.248,0,0,1-6.94159,50.128c-4.6045,24.52242-12.81133,47.68609-26.15861,68.896-14.83978,23.0657-33.96109,41.63271-57.9583,55.08227-17.89,10.31926-37.19563,16.80332-57.33005,20.85632-18.2174,3.66713-36.64894,5.70456-55.18144,7.26159a443.79225,443.79225,0,0,1-56.20593,1.594c-28.505-1.22367-56.86077-4.10348-84.82982-10.15609a183.47963,183.47963,0,0,1-26.24-7.66317c-13.87746-5.96055-27.49654-12.39434-39.85678-21.25074a153.12493,153.12493,0,0,1-32.95812-31.43673,180.15823,180.15823,0,0,1-30.32847-62.27737c-4.41045-13.441-6.4916-27.3806-8.65406-41.26843a435.1951,435.1951,0,0,1-5.06741-80.677,446.053,446.053,0,0,1,4.66039-52.84052c.24913-1.6461.17735-3.31383.4828-4.94191,1.87415-11.435,3.85217-22.8614,6.3924-34.1744,5.09678-22.69877,13.69485-43.94385,26.69543-63.31682A153.09827,153.09827,0,0,1,87.10475,41.43923C89.21688,40.10577,91.43909,39.02811,93.633,37.87311Z" transform="translate(-5.03057 -6.77438)"/><path class="b711dfcd-e4ff-4bb8-b41e-97f2cacd9468" d="M252.68306,63.19581c17.86287,7.53128,7.43589,34.71108,10.063,50.22091.42962,14.5214-19.97456,18.52581-24.93741,5.29574-2.60463-12.24481.00731-25.2543-1.14685-37.73762C235.75687,71.01117,241.93449,61.34664,252.68306,63.19581Z" transform="translate(-5.03057 -6.77438)"/><path class="b711dfcd-e4ff-4bb8-b41e-97f2cacd9468" d="M436.21577,253.65388c-9.22682,16.90071-34.21107,6.7086-50.09692,9.3562-12.4903.34861-18.457-15.75421-8.46224-23.1852,12.501-6.33837,28.2205-1.09491,41.88089-2.93405C429.7552,236.024,437.88845,243.26858,436.21577,253.65388Z" transform="translate(-5.03057 -6.77438)"/><path class="b711dfcd-e4ff-4bb8-b41e-97f2cacd9468" d="M246.12832,436.81471c-16.87642-9.26279-6.69151-34.28921-9.33766-50.19489-.3512-12.50063,15.70734-18.5014,23.13957-8.47868,6.32758,12.533,1.09218,28.27534,2.92852,41.96269C263.71838,430.33088,256.51834,438.48683,246.12832,436.81471Z" transform="translate(-5.03057 -6.77438)"/><path class="b711dfcd-e4ff-4bb8-b41e-97f2cacd9468" d="M343.64436,250.12649c-2.74222,123.14666-185.505,123.49284-187.58394-.28415C157.95775,126.73911,341.223,126.55079,343.64436,250.12649Z" transform="translate(-5.03057 -6.77438)"/><path class="b711dfcd-e4ff-4bb8-b41e-97f2cacd9468" d="M95.36932,263.03479c-6.069.00033-12.13891.0638-18.20692-.01526-18.29687.50153-17.96709-26.46412.01668-26.02163q18.02268-.13,36.04877.00418c17.97112-.19185,17.97289,26.16871-.017,26.01376C107.26579,263.10928,101.317,263.03443,95.36932,263.03479Z" transform="translate(-5.03057 -6.77438)"/><path class="b711dfcd-e4ff-4bb8-b41e-97f2cacd9468" d="M385.23879,372.95353c.30528,11.06454-14.28355,17.29588-21.7253,8.87834-8.64406-12.4795-44.13365-30.71968-24.8767-46.565,4.67656-3.039,10.90509-2.919,14.79194.86994C362.77761,347.8383,381.90235,358.47324,385.23879,372.95353Z" transform="translate(-5.03057 -6.77438)"/><path class="b711dfcd-e4ff-4bb8-b41e-97f2cacd9468" d="M333.40487,154.011c2.86067-14.14938,21.92245-24.68044,30.94367-36.06949a12.22026,12.22026,0,0,1,17.58661.01209c14.58663,15.55356-19.056,33.624-27.51445,45.44008C347.02469,171.3332,332.82558,164.74364,333.40487,154.011Z" transform="translate(-5.03057 -6.77438)"/><path class="b711dfcd-e4ff-4bb8-b41e-97f2cacd9468" d="M166.13408,346.04673c-3.28589,14.59031-21.49116,24.16666-30.69674,35.82622-5.3676,5.24149-12.84683,5.1478-17.8675.14807-14.31551-16.01445,18.77112-33.18247,27.29953-45.21212C152.27827,328.66741,166.73727,335.10663,166.13408,346.04673Z" transform="translate(-5.03057 -6.77438)"/><path class="b711dfcd-e4ff-4bb8-b41e-97f2cacd9468" d="M166.1392,154.11758c.47123,10.53164-13.39017,17.02548-20.85069,9.44126-4.56736-4.16157-8.83374-8.65629-13.20971-13.02776-6.721-8.293-23.13995-16.81763-16.9344-29.14516,3.51117-7.68524,14.342-9.56085,20.16048-3.40061C144.32821,129.68912,163.21388,139.61044,166.1392,154.11758Z" transform="translate(-5.03057 -6.77438)"/></svg>