<svg id="e38a2f12-9b66-4085-895a-6bcf9d09549f" data-name="Camada 1" xmlns="http://www.w3.org/2000/svg" viewBox="0 0 489.93885 486.45124"><defs><style>.ae6e7ade-66b8-4a57-bf22-72701d4ae710{fill:#ef7f76;}.ac6e3594-53f5-4ca7-ba08-51f54f65b5d0{fill:#fff;}</style></defs><path class="ae6e7ade-66b8-4a57-bf22-72701d4ae710" d="M93.633,37.87311c17.09945-8.95324,34.84775-16.14818,53.76659-20.33593a458.66674,458.66674,0,0,1,61.44242-8.84c17.05114-1.41169,34.12828-2.345,51.22281-1.73048,38.17681,1.37235,76.16473,4.38478,112.78475,16.40694,20.84717,6.844,39.973,16.93739,56.61291,31.43773.86962.75779,1.87692,1.35763,2.82009,2.031,9.05729,6.678,15.673,15.60289,22.43436,24.39158,9.091,11.817,15.26572,25.196,20.82384,38.91141,6.36323,17.195,9.9633,35.06354,13.03329,53.069,2.06431,14.75717,4.397,29.52951,4.87618,44.39673.522,16.19371,2.76617,32.37467.57916,48.65747-1.01,7.51976-.36436,15.19873-1.08107,22.82624a501.248,501.248,0,0,1-6.94159,50.128c-4.6045,24.52242-12.81133,47.68609-26.15861,68.896-14.83978,23.0657-33.96109,41.63271-57.9583,55.08227-17.89,10.31926-37.19563,16.80332-57.33005,20.85632-18.2174,3.66713-36.64894,5.70456-55.18144,7.26159a443.79225,443.79225,0,0,1-56.20593,1.594c-28.505-1.22367-56.86077-4.10348-84.82982-10.15609a183.47963,183.47963,0,0,1-26.24-7.66317c-13.87746-5.96055-27.49654-12.39434-39.85678-21.25074a153.12493,153.12493,0,0,1-32.95812-31.43673,180.15823,180.15823,0,0,1-30.32847-62.27737c-4.41045-13.441-6.4916-27.3806-8.65406-41.26843a435.1951,435.1951,0,0,1-5.06741-80.677,446.053,446.053,0,0,1,4.66039-52.84052c.24913-1.6461.17735-3.31383.4828-4.94191,1.87415-11.435,3.85217-22.8614,6.3924-34.1744,5.09678-22.69877,13.69485-43.94385,26.69543-63.31682A153.09827,153.09827,0,0,1,87.10475,41.43923C89.21688,40.10577,91.43909,39.02811,93.633,37.87311Z" transform="translate(-5.03057 -6.77438)"/><path class="ac6e3594-53f5-4ca7-ba08-51f54f65b5d0" d="M351.89656,137.83582a68.92772,68.92772,0,0,0-.9344-12.05689c-2.72307-15.25982-11.44242-24.69971-25.23585-27.56018H173.77862c-2.14773.70148-4.43289.39234-6.55232,1.42835-11.92453,5.82878-19.13221,18.57005-19.13283,33.97354q-.00462,116.17152-.00119,232.343c0,.9866-.02054,1.97417.01764,2.95954.66782,17.229,13.67835,32.93377,28.3646,32.8578,48.88891-.25284,97.77938-.13384,146.66915-.059,8.384.01283,15.03393-3.99388,20.62287-11.12093,6.37243-8.12618,8.13227-18.07842,8.13481-28.7096Q351.92819,249.86359,351.89656,137.83582Zm-144.7918,30.6064a17.6639,17.6639,0,1,1-17.702,17.56962A17.66743,17.66743,0,0,1,207.10476,168.44222Zm113.39162,214.0414c-23.58027-.10288-47.16109-.03438-70.74165-.03438q-34.99723,0-69.99447-.00123c-9.50211-.00156-14.94308-6.46839-14.94793-17.76255-.00507-11.94173.02713-23.88368-.03282-35.82506a5.69111,5.69111,0,0,1,1.436-4.09372c9.25887-10.90525,18.45174-21.88966,27.67146-32.8419,2.29327-2.72419,3.30845-2.72966,5.57166-.04741q8.46643,10.034,16.91664,20.08729c4.88655,5.80553,8.93731,5.78944,13.88294-.0873q26.77554-31.81656,53.54338-63.64224c2.954-3.51117,3.52949-3.51993,6.42724-.07484q21.48509,25.5435,42.9901,51.06333a6.08334,6.08334,0,0,1,1.56144,4.33964c-.05832,20.62588-.21539,41.25534.04778,61.87672C334.93917,374.13951,329.69041,382.52372,320.49638,382.48362Z" transform="translate(-5.03057 -6.77438)"/></svg>